# xmcd
#
# Track frame offsets:
# 150
# 12085
# 23122
# 35560
# 52425
# 67432
# 74947
# 88597
# 100670
# 113935
# 124357
# 139597
# 150272
# 159442
#
# Disc length: 2228 seconds
#
#
# Revision: 0
# Processed by: cddbd v1.5.1PL2 Copyright (c) Steve Scherf et al.
# Submitted via: FreeRIP 2.945 
#
DISCID=c908b20e
DTITLE=Roy Drusky - Greatest Hits
DYEAR=1900
DGENRE=Country
TTITLE0=Three Hearts In The Tangle
TTITLE1=Such A Fool
TTITLE2=If The Whole World Stopped Lovin'
TTITLE3=One Day At A Time
TTITLE4=Say You'll Stay Until Tomorrow
TTITLE5=Second Hand Rose
TTITLE6=Vaya Con Dios
TTITLE7=Yes Mr. Peters
TTITLE8=Jody And The Kid
TTITLE9=Strangers
TTITLE10=You've Got Your Troubles
TTITLE11=Long Long Texas Road
TTITLE12=White Lightning Express
TTITLE13=Peel Me A Nanner
EXTD=Woodford Music\nWMCD 5562
EXTT0=
EXTT1=
EXTT2=
EXTT3=
EXTT4=
EXTT5=
EXTT6=
EXTT7=
EXTT8=
EXTT9=
EXTT10=
EXTT11=
EXTT12=
EXTT13=
PLAYORDER=
